HIERARCHY
ROOT Hips
{
	OFFSET 0.000000 0.000000 0.000000
	CHANNELS 6 Xposition Yposition Zposition Zrotation Yrotation Xrotation 
	JOINT LHipJoint
	{
		OFFSET 0.000000 0.000000 0.000000
		CHANNELS 3 Zrotation Yrotation Xrotation
		JOINT LeftUpLeg
		{
			OFFSET 1.363060 -1.794630 0.839290
			CHANNELS 3 Zrotation Yrotation Xrotation
			JOINT LeftLeg
			{
				OFFSET 2.448110 -6.726130 0.000000
				CHANNELS 3 Zrotation Yrotation Xrotation
				JOINT LeftFoot
				{
					OFFSET 2.562200 -7.039590 0.000000
					CHANNELS 3 Zrotation Yrotation Xrotation
					JOINT LeftToeBase
					{
						OFFSET 0.157640 -0.433110 2.322550
						CHANNELS 3 Zrotation Yrotation Xrotation
						End Site
						{
							OFFSET 0.000000 0.000000 0.000000
						}
					}
				}
			}
		}
	}
	JOINT RHipJoint
	{
		OFFSET 0.000000 0.000000 0.000000
		CHANNELS 3 Zrotation Yrotation Xrotation
		JOINT RightUpLeg
		{
			OFFSET -1.305520 -1.794630 0.839290
			CHANNELS 3 Zrotation Yrotation Xrotation
			JOINT RightLeg
			{
				OFFSET -2.542530 -6.985550 0.000000
				CHANNELS 3 Zrotation Yrotation Xrotation
				JOINT RightFoot
				{
					OFFSET -2.568260 -7.056230 0.000000
					CHANNELS 3 Zrotation Yrotation Xrotation
					JOINT RightToeBase
					{
						OFFSET -0.164730 -0.452590 2.363150
						CHANNELS 3 Zrotation Yrotation Xrotation
						End Site
						{
							OFFSET 0.000000 0.000000 0.000000
						}
					}
				}
			}
		}
	}
	JOINT LowerBack
	{
		OFFSET 0.000000 0.000000 0.000000
		CHANNELS 3 Zrotation Yrotation Xrotation
		JOINT Spine
		{
			OFFSET 0.028270 2.035590 -0.193380
			CHANNELS 3 Zrotation Yrotation Xrotation
			JOINT Spine1
			{
				OFFSET 0.056720 2.048850 -0.042750
				CHANNELS 3 Zrotation Yrotation Xrotation
				JOINT Neck
				{
					OFFSET 0.000000 0.000000 0.000000
					CHANNELS 3 Zrotation Yrotation Xrotation
					JOINT Neck1
					{
						OFFSET -0.054170 1.746240 0.172020
						CHANNELS 3 Zrotation Yrotation Xrotation
						JOINT Head
						{
							OFFSET 0.104070 1.761360 -0.123970
							CHANNELS 3 Zrotation Yrotation Xrotation
							End Site
							{
								OFFSET 0.000000 0.000000 0.000000
							}
						}
					}
				}
				JOINT LeftShoulder
				{
					OFFSET 0.000000 0.000000 0.000000
					CHANNELS 3 Zrotation Yrotation Xrotation
					JOINT LeftArm
					{
						OFFSET 3.362410 1.200890 -0.311210
						CHANNELS 3 Zrotation Yrotation Xrotation
						JOINT LeftForeArm
						{
							OFFSET 4.983000 -0.000000 -0.000000
							CHANNELS 3 Zrotation Yrotation Xrotation
							JOINT LeftHand
							{
								OFFSET 3.483560 -0.000000 -0.000000
								CHANNELS 3 Zrotation Yrotation Xrotation
								JOINT LeftFingerBase
								{
									OFFSET 0.000000 0.000000 0.000000
									CHANNELS 3 Zrotation Yrotation Xrotation
									JOINT LeftHandIndex1
									{
										OFFSET 0.715260 -0.000000 -0.000000
										CHANNELS 3 Zrotation Yrotation Xrotation
										End Site
										{
											OFFSET 0.000000 0.000000 0.000000
										}
									}
								}
								JOINT LThumb
								{
									OFFSET 0.000000 0.000000 0.000000
									CHANNELS 3 Zrotation Yrotation Xrotation
									End Site
									{
										OFFSET 0.000000 0.000000 0.000000
									}
								}
							}
						}
					}
				}
				JOINT RightShoulder
				{
					OFFSET 0.000000 0.000000 0.000000
					CHANNELS 3 Zrotation Yrotation Xrotation
					JOINT RightArm
					{
						OFFSET -3.136600 1.374050 -0.404650
						CHANNELS 3 Zrotation Yrotation Xrotation
						JOINT RightForeArm
						{
							OFFSET -5.241900 -0.000000 -0.000000
							CHANNELS 3 Zrotation Yrotation Xrotation
							JOINT RightHand
							{
								OFFSET -3.444170 -0.000000 -0.000000
								CHANNELS 3 Zrotation Yrotation Xrotation
								JOINT RightFingerBase
								{
									OFFSET 0.000000 0.000000 0.000000
									CHANNELS 3 Zrotation Yrotation Xrotation
									JOINT RightHandIndex1
									{
										OFFSET -0.622530 -0.000000 -0.000000
										CHANNELS 3 Zrotation Yrotation Xrotation
										End Site
										{
											OFFSET 0.000000 0.000000 0.000000
										}
									}
								}
								JOINT RThumb
								{
									OFFSET 0.000000 0.000000 0.000000
									CHANNELS 3 Zrotation Yrotation Xrotation
									End Site
									{
										OFFSET 0.000000 0.000000 0.000000
									}
								}
							}
						}
					}
				}
			}
		}
	}
}
MOTION
Frames: 4
Frame Time: 0.033333
1.368723 17.108333 -3.641012 1.261599 -2.148159 12.120556 -16.188381 4.651158 4.600639 -0.594614 3.427054 3.647333 -4.655810 -0.299347 15.179514 0.095196 1.232275 14.638192 0.747752 0.004294 -60.928461 10.458240 2.669105 1.041792 5.458770 0.597154 -33.379041 4.742150 -0.575759 7.976494 -0.839882 -1.269000 2.875956 -0.378912 0.000257 -33.950379 2.084658 -1.930293 -3.867904 -0.243498 -5.654551 -4.412543 -6.219336 -5.775375 -0.517864 7.930739 -8.956395 -6.193378 -3.357154 -0.318501 0.530449 -0.033959 0.040209 0.000708 -3.876962 -0.225666 2.432840 -48.682401 -26.568616 16.667573 -4.506289 -40.276501 1.117747 3.121013 -0.227011 0.042525 -0.195152 0.258619 0.009608 -0.131894 -0.044684 -0.100857 -0.016043 0.023678 -0.048601 13.979225 -10.680082 1.072366 57.424482 -2.192962 -9.035605 3.608859 19.768147 0.641827 -0.090641 4.011961 0.009501 0.108384 0.039479 -0.024445 0.067609 -0.007528 -0.053323 0.038303 0.099351 0.030490 
1.273432 17.209842 -2.887594 0.517228 -3.486073 11.092442 -16.092077 3.822788 3.664750 0.013347 3.410726 4.622963 -4.340050 -0.767142 22.019490 -0.647057 3.346579 22.531727 1.587162 0.135841 -60.066299 9.825323 1.556295 1.544895 7.194663 2.065919 -31.420373 4.909639 -1.215355 11.830304 -0.979558 -1.762948 4.275885 -0.512601 0.052976 -30.749693 3.255240 -2.239817 -3.267273 -0.001655 -5.674879 -4.242701 -6.637178 -4.726526 -0.143528 8.400751 -8.494174 -6.047230 -3.305673 -0.328241 0.586730 -0.035359 0.042510 -0.000752 -3.753854 0.504803 2.692281 -51.543243 -22.715085 15.901628 -4.339411 -38.606176 0.640581 2.764482 -0.151895 0.052463 -0.214873 0.247233 0.011509 -0.140147 -0.039632 -0.096273 -0.024807 0.026700 -0.057802 15.046328 -11.374960 1.677791 56.212343 1.734129 -7.946628 3.344118 21.441673 0.399595 -0.540168 4.386041 -0.011385 0.045532 0.030328 -0.022174 0.070445 0.002385 -0.065105 0.037344 0.092392 0.027721 
1.146430 17.325704 -2.206506 -0.775677 -4.204549 10.390538 -15.699893 3.183451 1.590828 1.090887 4.560754 3.839497 -3.112532 -0.269634 31.923529 -0.957669 6.864410 26.743468 2.330576 0.160217 -55.829033 10.235278 0.760434 1.886113 8.497119 2.585056 -29.935926 5.314258 -1.457902 15.434024 -1.074106 -1.985592 5.195055 -0.524774 0.091905 -27.646804 4.493948 -2.955924 -3.434927 0.168964 -4.963114 -3.533984 -7.008486 -4.277857 -0.440065 8.628316 -8.049901 -6.201286 -3.512932 -0.344439 0.486489 -0.040910 0.041561 -0.003347 -4.006494 1.182047 3.315362 -54.074318 -18.630759 13.989982 -4.021681 -36.777493 0.359705 2.641971 0.096213 0.062429 -0.188955 0.271566 0.007392 -0.146457 -0.035319 -0.087539 -0.034988 0.031298 -0.059387 15.928831 -10.385536 2.877710 56.227631 4.512027 -7.451914 3.191106 22.696124 0.157164 -1.072308 4.576309 -0.038757 0.031182 0.008923 -0.013985 0.066368 0.010498 -0.072229 0.041533 0.085918 0.027613 
1.000030 17.436904 -1.601857 -1.466141 -4.699852 8.889613 -16.088195 2.754035 1.242100 2.418641 5.666427 -0.329294 -1.900387 0.674790 43.940960 -0.728617 11.057835 29.106375 2.960775 0.084070 -49.863523 10.441294 -0.312244 2.675507 9.328130 3.157541 -27.631524 5.718403 -1.491490 17.310637 -1.212808 -1.815168 3.946428 -0.350622 0.090376 -24.900677 4.612233 -3.775467 -2.043320 0.585193 -5.093311 -2.789746 -7.614491 -3.638287 -0.359179 9.682157 -7.378077 -6.490308 -3.570445 -0.355445 0.446438 -0.043299 0.035094 0.002283 -3.626177 2.359505 3.196991 -57.113873 -14.988677 12.304490 -4.083836 -34.147101 0.458975 2.589705 0.484401 0.069228 -0.217349 0.296750 0.002324 -0.148597 -0.032817 -0.073052 -0.039565 0.038049 -0.063679 17.055097 -8.727370 3.650439 56.051330 7.874010 -6.053428 2.508179 23.570061 -0.134854 -1.506826 4.945442 -0.070640 -0.010842 -0.000752 -0.007414 0.063855 0.019481 -0.085029 0.043498 0.075702 0.026477 
